<svg width="24" height="24" viewBox="0 0 24 24" fill="none" xmlns="http://www.w3.org/2000/svg">
<path d="M22.8941 16.9399V7.04752C22.8941 6.37662 22.3494 5.83273 21.6775 5.83273H10.5309C10.2981 5.83272 10.0701 5.76599 9.87409 5.64045C9.67808 5.51491 9.52226 5.33584 9.42515 5.12451L8.7744 3.70822C8.67729 3.49688 8.52148 3.31781 8.32547 3.19227C8.12945 3.06673 7.90148 3 7.66861 3H1.2166C0.544704 3 0 3.5439 0 4.21479V19.2767C0 19.9476 0.544704 20.4915 1.2166 20.4915H21.6775C21.7484 20.4915 21.8179 20.4851 21.8854 20.4735C21.9694 20.4851 22.0549 20.4915 22.1421 20.4915C23.1682 20.4915 24 19.661 24 18.6364C24 17.8791 23.5454 17.2282 22.8941 16.9399Z" fill="#F8B65B"/>
</svg>
