<svg width="59" height="43" viewBox="0 0 59 43" fill="none" xmlns="http://www.w3.org/2000/svg">
<path d="M56.2813 34.2689V9.95015C56.2813 8.30086 54.9423 6.96378 53.2905 6.96378H25.8886C25.3161 6.96378 24.7557 6.79973 24.2738 6.49111C23.7919 6.1825 23.4089 5.74228 23.1702 5.22274L21.5704 1.74104C21.3317 1.2215 20.9486 0.781286 20.4668 0.47267C19.9849 0.164055 19.4245 5.36033e-06 18.852 0H2.9908C1.33906 0 0 1.33708 0 2.98636V40.0136C0 41.6629 1.33906 43 2.9908 43H53.2905C53.4649 43 53.6356 42.9843 53.8017 42.9556C54.008 42.9842 54.2184 43 54.4326 43C56.9552 43 59 40.9582 59 38.4394C59 36.5777 57.8825 34.9777 56.2813 34.2689Z" fill="#566885"/>
</svg>
