<svg width="64" height="64" viewBox="0 0 64 64" fill="none" xmlns="http://www.w3.org/2000/svg">
<path d="M34.5902 0.108648C36.8349 0.22376 39.605 0.787804 42.208 1.62812C44.1064 2.24972 44.1184 2.26123 44.1184 2.91737C44.1184 3.22817 44.2019 4.48288 44.2975 5.70306C44.7512 11.4702 44.8945 13.3004 45.0736 15.7063C45.1571 16.6847 45.2646 18.0085 45.3124 18.6416C45.3721 19.2747 45.384 19.8272 45.3362 19.8733C45.2885 19.9193 41.7542 17.0761 37.4916 13.5537C33.2171 10.0313 28.1784 5.88724 26.268 4.34475C24.3696 2.79075 22.7935 1.48998 22.7696 1.44394C22.7099 1.27127 25.6233 0.580602 27.7008 0.281316C28.2262 0.200738 29.3247 0.0971365 30.1485 0.0510916C31.6052 -0.029487 32.2022 -0.0179758 34.5902 0.108648ZM21.6711 5.12751C30.5426 12.4371 32.2977 13.9105 32.2977 13.9911C32.2977 14.0486 32.1783 14.1177 32.0351 14.1407C31.8082 14.1868 20.3697 15.4185 16.3578 15.8329C15.1041 15.9595 13.337 16.1437 9.91021 16.5235C8.47741 16.6732 7.04461 16.8228 5.67151 16.9725C5.05063 17.03 4.33423 17.1106 4.09543 17.1567C3.8208 17.1912 3.6417 17.1797 3.6417 17.0991C3.6417 17.0415 3.80886 16.6847 4.02379 16.3163C6.74611 11.5047 10.9012 7.25707 15.7011 4.40231C16.5608 3.89581 18.6622 2.81377 18.8055 2.81377C18.8413 2.81377 20.1309 3.84977 21.6711 5.12751ZM49.169 4.93182C52.8465 7.2801 56.1658 10.5147 58.6732 14.2098C59.712 15.7408 61.4791 19.033 61.4075 19.3208C61.3597 19.551 50.2197 32.4435 50.0287 32.4895C49.9331 32.5125 49.8615 32.1672 49.8137 31.2808C49.766 30.6017 49.6824 29.3355 49.6108 28.4836C49.5391 27.6318 49.4317 26.2505 49.372 25.4332C49.3123 24.6044 49.169 22.8432 49.0735 21.5194C48.966 20.1841 48.8347 18.4229 48.775 17.6056C48.7033 16.7768 48.5959 15.3839 48.5362 14.4976C48.4645 13.6112 48.3571 12.2069 48.2974 11.3896C48.2377 10.5608 48.1302 9.19094 48.0586 8.33912C47.7123 4.22964 47.7123 4.1951 47.9153 4.1951C47.963 4.1951 48.5242 4.52893 49.169 4.93182ZM19.8801 19.0905C19.8801 19.2287 17.9697 21.5424 16.4892 23.1885C16.3578 23.3497 15.5937 24.2245 14.7937 25.1454C12.9549 27.275 11.2594 29.2203 8.19085 32.7312C6.84163 34.2737 4.74019 36.6796 3.5223 38.0724C2.30442 39.4653 1.26564 40.6164 1.194 40.6164C1.1343 40.6279 1.03878 40.4437 0.991021 40.225C0.728341 39.1084 0.668641 38.8322 0.501481 37.9803C0.0835801 35.8623 0 34.9414 0 31.9945C0 29.1513 0.03582 28.6218 0.441781 26.2965C0.632821 25.1914 1.3134 22.5554 1.63578 21.6921L1.9104 20.9438L3.582 20.7481C4.50139 20.6445 5.79091 20.5064 6.44761 20.4373C7.10431 20.3683 8.39383 20.2301 9.31321 20.1265C10.2326 20.0344 11.4385 19.8963 11.9997 19.8503C12.5609 19.7927 13.4683 19.6891 14.0295 19.6316C15.3549 19.4819 16.9071 19.3208 18.3757 19.1596C19.0324 19.102 19.5936 19.0215 19.6174 18.9869C19.7368 18.8718 19.8801 18.9294 19.8801 19.0905ZM63.1985 24.5353C63.4731 25.7325 63.5925 26.3771 63.8433 27.8505C64.0582 29.1052 64.0462 34.6306 63.8433 36.0234C63.5328 38.0264 63.1388 39.7991 62.6254 41.4912C62.1836 42.9186 62.0642 43.2179 61.8851 43.2755C61.8015 43.2985 60.5001 43.4596 58.9837 43.6093C54.7688 44.0582 54.0405 44.1388 53.0734 44.2539C52.5838 44.3115 51.5928 44.4151 50.8645 44.4841C50.1481 44.5532 49.1809 44.6568 48.7153 44.7144C48.2615 44.7719 47.2586 44.8755 46.5064 44.9446C45.7541 45.0136 44.8825 45.1172 44.5601 45.1633C44.2497 45.2208 43.9631 45.2208 43.9393 45.1748C43.9154 45.1288 45.181 43.5978 46.769 41.7675C50.2316 37.7731 56.8106 30.1873 59.1031 27.5627C60.0105 26.5152 61.1806 25.1569 61.7179 24.5353C62.2433 23.9252 62.7328 23.4187 62.8045 23.4187C62.8761 23.4187 63.0552 23.9252 63.1985 24.5353ZM14.328 32.3629C14.5788 35.4133 14.6504 36.4033 14.925 39.9372C15.0922 42.0898 15.2713 44.4956 15.3429 45.2899C15.4026 46.0842 15.5101 47.431 15.5817 48.2828C15.6534 49.1346 15.7608 50.4354 15.8205 51.1606C15.8802 51.8858 15.9877 53.2326 16.0593 54.1535C16.131 55.0744 16.2384 56.3867 16.2981 57.0888C16.4772 59.0918 16.4772 59.7134 16.322 59.7709C16.1429 59.8285 13.3848 58.0788 12.334 57.2385C8.45353 54.1765 5.74315 50.8728 3.36708 46.3604C2.9253 45.5316 2.5671 44.7949 2.5671 44.7259C2.5671 44.6108 5.54017 41.1459 10.9968 34.9299C12.3579 33.3759 13.5758 31.9715 13.7071 31.7873C14.1131 31.2693 14.2444 31.3844 14.328 32.3629ZM20.9189 45.4856C21.9696 46.3604 24.3934 48.3634 26.3277 49.9519C28.2501 51.529 30.9843 53.7851 32.4052 54.9593C33.8261 56.1334 36.4529 58.2975 38.2439 59.7709C40.0229 61.2444 41.4916 62.4876 41.4916 62.5451C41.4916 62.6027 41.3722 62.6717 41.2289 62.7063C41.0736 62.7408 40.202 62.948 39.2826 63.1667C35.6768 64.0416 31.3903 64.2373 27.7605 63.7077C25.2651 63.3279 22.4711 62.6372 20.6323 61.9235C20.0473 61.6933 20.095 61.866 19.8801 58.9306C19.8085 57.9176 19.701 56.4442 19.6413 55.6499C19.5816 54.8557 19.4742 53.4283 19.4025 52.4844C19.1279 48.6512 19.0324 47.3619 18.913 46.1417C18.7816 44.5647 18.7697 43.9086 18.913 43.9086C18.9607 43.9086 19.8682 44.6223 20.9189 45.4856ZM60.1777 47.1317C60.2254 47.2008 59.8434 47.9145 59.3538 48.7202C56.7628 52.8988 53.1808 56.5133 49.0138 59.1493C48.178 59.6673 45.6347 61.0602 45.5034 61.0602C45.4437 61.0602 39.8916 56.5363 34.4828 52.0815C33.2171 51.0455 32.1783 50.1591 32.1783 50.1016C32.1783 50.0555 32.2619 50.0095 32.3574 50.0095C32.453 50.0095 33.4917 49.9059 34.6619 49.7793C35.82 49.6411 37.4797 49.4685 38.3274 49.3764C40.2378 49.1807 43.987 48.7778 46.4467 48.513C46.972 48.4555 47.9392 48.3519 48.5959 48.2828C49.2526 48.2137 50.2197 48.1101 50.7451 48.0526C51.2704 47.995 52.2376 47.8914 52.8943 47.8224C53.551 47.7533 54.4942 47.6497 54.9838 47.5921C55.4733 47.5346 56.4166 47.431 57.0733 47.3619C57.73 47.2928 58.6135 47.1892 59.0434 47.1432C59.4732 47.0856 59.8792 47.0396 59.9628 47.0281C60.0344 47.0281 60.1419 47.0741 60.1777 47.1317Z" fill="#566885"/>
</svg>
